<svg width="30" height="30" viewBox="0 0 30 30" fill="none" xmlns="http://www.w3.org/2000/svg">
<path d="M26.953 24.4658L25 6.09091C25 4.93568 24.105 4 23 4H15H7C5.895 4 5 4.93568 5 6.09091L3.047 24.4658C3.018 24.609 3 24.7565 3 24.9091C3 26.0643 3.895 27 5 27H15H25C26.105 27 27 26.0643 27 24.9091C27 24.7565 26.982 24.609 26.953 24.4658ZM20 9.13109V10.2727C20 13.155 17.757 15.5 15 15.5C12.243 15.5 10 13.155 10 10.2727V9.13109C9.419 8.91573 9 8.34073 9 7.65909C9 6.79345 9.672 6.09091 10.5 6.09091C11.328 6.09091 12 6.79345 12 7.65909V10.2727C12 12.0019 13.346 13.4091 15 13.4091C16.654 13.4091 18 12.0019 18 10.2727V7.65909C18 6.79345 18.672 6.09091 19.5 6.09091C20.328 6.09091 21 6.79345 21 7.65909C21 8.34073 20.581 8.91573 20 9.13109Z" fill="#DB3022"/>
</svg>
