<svg width="208" height="213" viewBox="0 0 208 213" fill="none" xmlns="http://www.w3.org/2000/svg">
<g clip-path="url(#clip0)">
<path d="M89.368 69.0837L87.5149 69.0024C87.6253 66.4746 88.7352 44.1884 93.6132 40.123C93.923 39.8461 94.2883 39.6387 94.6847 39.5146C95.0811 39.3904 95.4994 39.3524 95.9116 39.4031C98.8157 39.8076 101.987 44.4157 105.606 53.4907C108.184 59.952 110.042 66.3946 110.06 66.459L108.277 66.9713C108.259 66.9078 106.423 60.5431 103.879 54.167C99.3873 42.9093 96.6322 41.3776 95.6561 41.2418C95.4995 41.2248 95.3411 41.2437 95.1928 41.297C95.0445 41.3503 94.9102 41.4366 94.8002 41.5493C91.2008 44.5488 89.6586 62.442 89.368 69.0837Z" fill="black"/>
<path d="M72.9962 57.0587L71.1411 103.609L132.349 97.0114L124.783 52.0684L72.9962 57.0587Z" fill="#FFBA49"/>
<path d="M124.783 52.0684L120.28 52.5021L126.272 91.9126L71.3555 98.2358L71.1411 103.609L132.349 97.0114L124.783 52.0684Z" fill="#FFA113"/>
<path d="M157.85 132.113L155.304 131.83C155.326 131.63 157.44 111.716 150.585 104.27C149.779 103.364 148.779 102.652 147.66 102.188C146.54 101.724 145.331 101.52 144.121 101.59C129.189 102.015 122.168 127.658 122.099 127.917L119.625 127.255C121.004 122.466 122.92 117.849 125.335 113.491C130.537 104.23 137.008 99.2287 144.048 99.0285C145.624 98.9477 147.199 99.2206 148.656 99.8273C150.113 100.434 151.416 101.359 152.47 102.535C160.113 110.84 157.946 131.248 157.85 132.113Z" fill="#FFBA49"/>
<path d="M112.428 113.85L166.458 120.262L165.62 205.997L93.4968 197.401L112.428 113.85Z" fill="#DB3022"/>
<path d="M166.458 120.263L161.107 119.627L158.501 198.955L94.5127 192.918L93.4968 197.401L165.62 205.997L166.458 120.263Z" fill="#D10505"/>
<path d="M179.999 147.509C182.46 148.025 184.804 146.057 185.235 143.109C185.694 143.893 186.153 144.678 186.612 145.464C186.181 148.411 183.835 150.38 181.378 149.864C180.919 149.078 180.459 148.294 179.999 147.509Z" fill="#FFBA49"/>
<path d="M107.332 210.563C109.793 211.079 112.137 209.11 112.568 206.163C113.027 206.946 113.486 207.731 113.945 208.517C113.515 211.464 111.169 213.434 108.711 212.918C108.252 212.132 107.792 211.347 107.332 210.563Z" fill="#9B9B9B"/>
<path d="M185.494 98.1689C186.526 100.893 189.205 102.103 191.481 100.867C191.199 101.765 190.917 102.662 190.634 103.559C188.358 104.793 185.679 103.584 184.648 100.859C184.932 99.9635 185.214 99.0667 185.494 98.1689Z" fill="#FF5C00"/>
<path d="M169.571 78.8198C169.987 75.8688 168.327 73.0746 165.864 72.5775C166.515 72.0214 167.167 71.4655 167.82 70.9097C170.282 71.4068 171.942 74.2021 171.528 77.152C170.876 77.7082 170.224 78.2642 169.571 78.8198Z" fill="#021193"/>
<path d="M21.7077 66.9101C22.123 63.9591 20.4636 61.1648 18 60.6677C18.6515 60.1116 19.3035 59.5557 19.9563 59C22.418 59.497 24.0783 62.2923 23.664 65.2423C23.0125 65.7984 22.3604 66.3543 21.7077 66.9101Z" fill="#FF5C00"/>
<path d="M72.0943 171.475C72.5097 168.524 70.8503 165.729 68.3867 165.232C69.0382 164.676 69.6902 164.12 70.3429 163.564C72.8046 164.061 74.4649 166.857 74.0506 169.807C73.3992 170.363 72.7471 170.919 72.0943 171.475Z" fill="#FF5C00"/>
<path d="M201.332 60.8891C203.776 61.506 206.173 59.6326 206.688 56.7031C207.126 57.5057 207.563 58.309 208 59.1128C207.486 62.0394 205.087 63.914 202.644 63.2988C202.206 62.4962 201.769 61.6929 201.332 60.8891Z" fill="#FFBA49"/>
<path d="M5.82079 97.1411C4.94465 94.3383 2.33935 92.917 0 93.9678C0.330918 93.0965 0.662322 92.2239 0.994215 91.3503C3.33162 90.3005 5.93838 91.7207 6.815 94.5223C6.4841 95.3948 6.15269 96.2678 5.82079 97.1411Z" fill="#FFBA49"/>
<path d="M66.5339 131.279C66.7066 134.264 68.8667 136.516 71.3577 136.308C70.8324 137.033 70.3061 137.754 69.7818 138.479C67.2898 138.684 65.1306 136.432 64.958 133.447C65.4833 132.726 66.0086 132.003 66.5339 131.279Z" fill="#DB3022"/>
<path d="M48.9287 77.0532C51.4027 76.6419 53.1295 73.905 52.7852 70.9409C53.4244 71.5197 54.0625 72.0978 54.6998 72.6752C55.043 75.6404 53.3173 78.3756 50.8432 78.7886C50.206 78.2097 49.5678 77.6312 48.9287 77.0532Z" fill="#021193"/>
<path d="M149.812 40.7055C146.604 40.8117 148.91 46.4644 145.701 46.573C145.088 45.9566 144.476 45.3403 143.862 44.7239C147.071 44.6171 144.765 38.9644 147.973 38.856C148.586 39.4723 149.199 40.0888 149.812 40.7055Z" fill="#FF5C00"/>
<path d="M155.642 189.278C152.519 188.392 153.531 194.565 150.407 193.68C149.947 192.895 149.488 192.11 149.029 191.325C152.152 192.211 151.139 186.038 154.264 186.924C154.723 187.709 155.182 188.493 155.642 189.278Z" fill="#FFBA49"/>
<path d="M62.7806 197.314C60.5751 200.109 65.542 202.157 63.3363 204.949C62.5398 205.031 61.7423 205.116 60.9458 205.197C63.1514 202.404 58.1845 200.359 60.3901 197.564C61.1876 197.483 61.9844 197.399 62.7806 197.314Z" fill="#021193"/>
<path d="M134.225 4.35469C131.085 5.15391 134.202 10.2188 131.063 11.0163C130.369 10.5414 129.671 10.0682 128.977 9.59218C132.116 8.79516 128.998 3.73212 132.138 2.93286C132.834 3.4089 133.53 3.88284 134.225 4.35469Z" fill="#DB3022"/>
<path d="M33.4438 21.0039C34.9884 24.3758 38.137 19.3395 39.6794 22.7103C39.5002 23.6436 39.3233 24.5804 39.1432 25.5142C37.6008 22.1423 34.4541 27.1802 32.9094 23.8083C33.0891 22.8722 33.2672 21.9374 33.4438 21.0039Z" fill="#9B9B9B"/>
<path d="M6.81494 153.583C7.22927 153.508 7.60411 153.29 7.87404 152.966C8.14398 152.643 8.29185 152.235 8.29185 151.813C8.29185 151.392 8.14398 150.984 7.87404 150.661C7.60411 150.337 7.22927 150.119 6.81494 150.044" fill="black"/>
<path d="M174.448 16.8658C173.098 16.8658 172 15.5501 172 13.9328C172 12.3156 173.098 11 174.448 11C175.798 11 176.896 12.3156 176.896 13.9329C176.896 15.5501 175.798 16.8658 174.448 16.8658ZM174.448 12.1634C174.019 12.2058 173.624 12.415 173.348 12.7459C173.072 13.0768 172.936 13.5031 172.971 13.9329C172.932 14.1493 172.941 14.3716 172.997 14.5842C173.053 14.7968 173.155 14.9945 173.296 15.1633C173.437 15.332 173.613 15.4678 173.812 15.561C174.011 15.6541 174.228 15.7024 174.448 15.7024C174.668 15.7024 174.885 15.6541 175.084 15.561C175.283 15.4678 175.459 15.332 175.6 15.1633C175.741 14.9945 175.843 14.7968 175.899 14.5842C175.955 14.3716 175.964 14.1493 175.925 13.9329C175.959 13.5031 175.824 13.0768 175.548 12.7459C175.272 12.415 174.877 12.2058 174.448 12.1634Z" fill="black"/>
<path d="M31.9474 127.983C30.5976 127.983 29.4995 126.668 29.4995 125.05C29.4995 123.433 30.5976 122.118 31.9474 122.118C33.2972 122.118 34.3953 123.433 34.3953 125.05C34.3953 126.668 33.2972 127.983 31.9474 127.983ZM31.9474 123.281C31.5331 123.356 31.1582 123.574 30.8883 123.898C30.6184 124.221 30.4705 124.629 30.4705 125.05C30.4705 125.472 30.6184 125.88 30.8883 126.203C31.1582 126.527 31.5331 126.745 31.9474 126.82C32.3617 126.745 32.7366 126.527 33.0065 126.203C33.2764 125.88 33.4243 125.472 33.4243 125.05C33.4243 124.629 33.2764 124.221 33.0065 123.898C32.7366 123.574 32.3617 123.356 31.9474 123.281Z" fill="black"/>
</g>
<defs>
<clipPath id="clip0">
<rect width="208" height="213" fill="white"/>
</clipPath>
</defs>
</svg>
