<svg width="30" height="30" viewBox="0 0 30 30" fill="none" xmlns="http://www.w3.org/2000/svg">
<path fill-rule="evenodd" clip-rule="evenodd" d="M10.2 22.2C8.88001 22.2 7.81201 23.28 7.81201 24.6C7.81201 25.92 8.88001 27 10.2 27C11.52 27 12.6 25.92 12.6 24.6C12.6 23.28 11.52 22.2 10.2 22.2ZM3 3V5.4H5.4L9.72 14.508L8.1 17.448C7.908 17.784 7.8 18.18 7.8 18.6C7.8 19.92 8.88 21 10.2 21H24.6V18.6H10.704C10.536 18.6 10.404 18.468 10.404 18.3L10.44 18.156L11.52 16.2H20.46C21.36 16.2 22.152 15.708 22.56 14.964L26.856 7.176C27.0574 6.80346 27.0482 6.35248 26.8318 5.98847C26.6153 5.62445 26.2235 5.40098 25.8 5.4H8.052L6.924 3H3ZM22.2 22.2C20.88 22.2 19.812 23.28 19.812 24.6C19.812 25.92 20.88 27 22.2 27C23.52 27 24.6 25.92 24.6 24.6C24.6 23.28 23.52 22.2 22.2 22.2Z" fill="#DB3022"/>
</svg>
