<svg width="24" height="24" viewBox="0 0 24 24" fill="none" xmlns="http://www.w3.org/2000/svg">
<path d="M8.35507 0.643626C5.46851 1.65782 2.97202 3.84225 1.56775 6.57278C1.09966 7.50897 0.70958 8.52316 0.553549 9.61538C0.00744274 12.1899 0.397519 14.9984 1.56775 17.3389C2.3479 18.8992 3.44011 20.2254 4.84439 21.3177C6.09263 22.3319 7.57492 23.112 9.21324 23.5021C11.2416 24.0482 13.348 24.0482 15.2984 23.5801C17.0928 23.19 18.8091 22.3319 20.2134 21.0056C21.6957 19.6793 22.7099 17.963 23.256 16.0126C23.8801 13.9842 23.9581 11.7998 23.568 9.69339C19.8233 9.69339 16.0786 9.69339 12.3338 9.69339C12.3338 11.2537 12.3338 12.814 12.3338 14.3743C14.5183 14.3743 16.7027 14.3743 18.8091 14.3743C18.5751 15.8566 17.6389 17.2609 16.3906 18.041C15.6105 18.5871 14.6743 18.8992 13.7381 19.0552C12.8019 19.2113 11.7877 19.2113 10.8516 19.0552C9.91538 18.8992 8.97919 18.4311 8.19904 17.885C6.9508 17.0268 5.9366 15.7006 5.46851 14.2183C4.9224 12.736 4.9224 11.0977 5.46851 9.53736C5.85859 8.52316 6.40469 7.50897 7.18484 6.72881C8.12103 5.71461 9.36927 5.01248 10.7735 4.77843C11.9438 4.54439 13.114 4.54439 14.2842 4.93446C15.2204 5.24652 16.1566 5.79263 16.8587 6.41675C17.5609 5.71462 18.341 4.93446 19.0432 4.23233C19.4332 3.84225 19.8233 3.45217 20.2134 3.0621C19.1212 2.0479 17.7949 1.18973 16.3906 0.643626C13.8161 -0.214542 10.9296 -0.214542 8.35507 0.643626Z" fill="white"/>
<path d="M8.35507 0.643591C10.9296 -0.214576 13.8161 -0.214576 16.3906 0.721607C17.7949 1.26771 19.1212 2.04787 20.2134 3.14008C19.8233 3.53015 19.4332 3.92023 19.0432 4.31031C18.341 5.01244 17.5609 5.7926 16.8587 6.49473C16.1566 5.7926 15.2204 5.24649 14.2842 5.01244C13.192 4.70038 11.9438 4.62237 10.7735 4.85641C9.44729 5.16847 8.19904 5.87061 7.18485 6.80679C6.40469 7.58695 5.78057 8.60114 5.46851 9.61534C4.14225 8.60114 2.89401 7.58695 1.56775 6.57275C2.97202 3.84222 5.46851 1.65779 8.35507 0.643591Z" fill="#EA4335"/>
<path d="M0.553549 9.61535C0.787595 8.60115 1.09966 7.58695 1.56775 6.57275C2.89401 7.58695 4.14225 8.60115 5.46851 9.61535C4.9224 11.0976 4.9224 12.736 5.46851 14.2963C4.14225 15.3105 2.89401 16.3247 1.56775 17.3389C0.397519 14.9204 0.00744271 12.1899 0.553549 9.61535Z" fill="#FBBC05"/>
<path d="M12.2559 9.69342C16.0006 9.69342 19.7453 9.69342 23.4901 9.69342C23.8801 11.7998 23.8021 13.9843 23.178 16.0127C22.6319 17.885 21.6177 19.6014 20.1354 21.0056C18.8872 19.9914 17.6389 19.0552 16.3127 18.041C17.5609 17.1829 18.4191 15.8566 18.7311 14.3743C16.5467 14.3743 14.3623 14.3743 12.2559 14.3743C12.2559 12.814 12.2559 11.2537 12.2559 9.69342Z" fill="#4285F4"/>
<path d="M1.56775 17.3389C2.89401 16.3247 4.14225 15.3105 5.46851 14.2963C5.9366 15.7786 6.9508 17.1048 8.19904 17.963C8.9792 18.5091 9.91538 18.8992 10.8516 19.1332C11.7877 19.2892 12.7239 19.2892 13.7381 19.1332C14.6743 18.9772 15.6105 18.5871 16.3906 18.119C17.6389 19.1332 18.8871 20.0694 20.2134 21.0836C18.8091 22.3318 17.1708 23.19 15.2984 23.6581C13.27 24.1262 11.1636 24.1262 9.21324 23.5801C7.65294 23.19 6.17065 22.4098 4.84439 21.3956C3.51813 20.2254 2.3479 18.8211 1.56775 17.3389Z" fill="#34A853"/>
</svg>
